<svg width="128" height="128" viewBox="0 0 128 128" fill="none" xmlns="http://www.w3.org/2000/svg">
<path d="M1.4082 1.40796H126.592V126.593H1.4082V1.40796Z" fill="#67E8F9"/>
<path d="M71.5436 58.8203V70.0588H56.2855V116.407H42.258V70.0588H27V58.8203H71.5436Z" fill="black"/>
<path d="M96.4198 116.981C92.2088 116.981 88.4353 116.298 85.0993 114.93C81.7634 113.563 79.0836 111.54 77.0602 108.86C75.0914 106.18 74.0523 102.954 73.9429 99.1802H88.8728C89.0916 101.313 89.8299 102.954 91.0877 104.102C92.3455 105.196 93.9862 105.743 96.0096 105.743C98.0878 105.743 99.7284 105.278 100.932 104.348C102.135 103.364 102.736 102.024 102.736 100.329C102.736 98.9068 102.244 97.731 101.26 96.8013C100.33 95.8716 99.1542 95.106 97.7323 94.5044C96.3651 93.9028 94.3963 93.2192 91.826 92.4536C88.1072 91.3051 85.072 90.1567 82.7204 89.0082C80.3688 87.8598 78.3453 86.1644 76.65 83.9222C74.9547 81.68 74.107 78.7542 74.107 75.1448C74.107 69.7853 76.0484 65.6017 79.9313 62.5938C83.8142 59.5313 88.8728 58 95.1073 58C101.451 58 106.564 59.5313 110.447 62.5938C114.33 65.6017 116.408 69.8127 116.682 75.2268H101.506C101.396 73.3674 100.713 71.9182 99.455 70.8791C98.1972 69.7853 96.5839 69.2384 94.6151 69.2384C92.9198 69.2384 91.5525 69.7033 90.5135 70.633C89.4744 71.508 88.9549 72.7932 88.9549 74.4885C88.9549 76.3479 89.8299 77.7971 91.5799 78.8362C93.3299 79.8753 96.0643 80.9964 99.7831 82.1995C103.502 83.4574 106.51 84.6605 108.807 85.809C111.158 86.9574 113.182 88.6254 114.877 90.8129C116.572 93.0005 117.42 95.8169 117.42 99.2623C117.42 102.544 116.572 105.524 114.877 108.204C113.236 110.884 110.83 113.016 107.658 114.602C104.486 116.188 100.74 116.981 96.4198 116.981Z" fill="black"/>
</svg>
